#!OML:ASF E:\motion texture\Top Level 1\Subject 1\Session 1\male.ASF
:FULLY-SPECIFIED
:DEGREES
560
root -31.4609 17.6046 3.35614 208.366 -85.6705 -200.579
lowerback -0.756597 -6.55241 -0.121037
upperback -3.5879 -8.83846 7.21897
thorax -2.12843 -4.44979 7.61562
lowerneck -11.0991 -7.17248 -8.18031
upperneck 4.00316 -8.81161 5.48628
head 3.58152 -4.2623 2.38512
rclavicle -1.01678e-013 4.13472e-014
rhumerus 26.8486 14.7855 -65.6822
rradius 87.5946
rwrist 25.9334
rhand -36.6072 -25.9408
rfingers 7.12502
rthumb -9.69564 -415.698
lclavicle -1.01678e-013 4.13472e-014
lhumerus 30.7071 -34.7107 93.6724
lradius 68.6957
lwrist 26.3338
lhand -11.8613 44.0919
lfingers 7.12502
lthumb 14.1907 73.5872
rfemur -36.7805 -0.794369 14.119
rtibia 20.1246
rfoot -3.06802 -13.3397
rtoes -1.60526
lfemur -1.94492 -1.6803 -26.3993
ltibia 26.5537
lfoot -17.1236 0.81295
ltoes -13.6497
561
root -31.6308 17.5977 3.35567 207.525 -85.5083 -199.646
lowerback -0.750284 -6.59444 0.0830344
upperback -3.60028 -8.89975 7.37733
thorax -2.14249 -4.48794 7.67212
lowerneck -11.1622 -7.08982 -8.07972
upperneck 3.95292 -8.70052 5.36946
head 3.55895 -4.21029 2.34213
rclavicle -7.89175e-014 -6.20208e-014
rhumerus 27.2738 14.8844 -65.5297
rradius 87.2506
rwrist 26.4464
rhand -37.0913 -26.1492
rfingers 7.12502
rthumb -10.1627 -415.884
lclavicle -7.89175e-014 -6.20208e-014
lhumerus 30.8127 -34.4523 94.1341
lradius 68.5997
lwrist 27.4741
lhand -11.906 44.6848
lfingers 7.12502
lthumb 14.1475 74.1831
rfemur -36.8469 -0.403524 14.1156
rtibia 19.9749
rfoot -2.73918 -13.0342
rtoes -1.30236
lfemur -2.02323 -1.4803 -26.374
ltibia 27.3795
lfoot -16.7542 0.500501
ltoes -14.4235
562
root -31.8017 17.5919 3.35458 206.546 -85.3416 -198.583
lowerback -0.738554 -6.63458 0.298093
upperback -3.60439 -8.959 7.53941
thorax -2.15235 -4.52569 7.72684
lowerneck -11.2296 -7.00623 -7.97666
upperneck 3.90535 -8.58871 5.25409
head 3.53803 -4.1578 2.29902
rclavicle -6.55989e-015 1.59028e-014
rhumerus 27.6229 15.0033 -65.3949
rradius 86.9293
rwrist 26.9703
rhand -37.5661 -26.3747
rfingers 7.12502
rthumb -10.6208 -416.086
lclavicle -6.55989e-015 1.59028e-014
lhumerus 30.8592 -34.2205 94.6017
lradius 68.5186
lwrist 28.6052
lhand -11.9399 45.2379
lfingers 7.12502
lthumb 14.1149 74.7385
rfemur -36.8994 -0.00373493 14.1365
rtibia 19.9211
rfoot -2.41043 -12.7128
rtoes -0.922774
lfemur -2.13947 -1.27379 -26.3268
ltibia 28.2592
lfoot -16.3222 0.179851
ltoes -15.1746
563
root -31.9736 17.5874 3.35285 205.454 -85.1692 -197.415
lowerback -0.720123 -6.67245 0.522758
upperback -3.60071 -9.01565 7.70462
thorax -2.15922 -4.5627 7.7802
lowerneck -11.3021 -6.92193 -7.87081
upperneck 3.8623 -8.47639 5.1389
head 3.51943 -4.10498 2.2553
rclavicle 2.16675e-014 6.36111e-014
rhumerus 27.8906 15.144 -65.2744
rradius 86.6358
rwrist 27.4944
rhand -38.1117 -26.6564
rfingers 7.12502
rthumb -11.147 -416.34
lclavicle 2.16675e-014 6.36111e-014
lhumerus 30.8476 -34.0193 95.0714
lradius 68.4543
lwrist 29.7205
lhand -11.9601 45.7509
lfingers 7.12502
lthumb 14.0954 75.2529
rfemur -36.9382 0.40223 14.1816
rtibia 19.9593
rfoot -2.08609 -12.3748
rtoes -0.465201
lfemur -2.29464 -1.0603 -26.259
ltibia 29.19
lfoot -15.8266 -0.139195
ltoes -15.9066
564
root -32.1464 17.584 3.35048 204.276 -84.9894 -196.169
lowerback -0.694652 -6.70785 0.755728
upperback -3.58847 -9.06941 7.87172
thorax -2.1625 -4.59877 7.83158
lowerneck -11.3812 -6.83732 -7.76133
upperneck 3.82334 -8.36418 5.02458
head 3.50325 -4.05209 2.21096
rclavicle -1.25234e-014 -7.31528e-014
rhumerus 28.0748 15.3043 -65.1714
rradius 86.3774
rwrist 28.0116
rhand -38.6763 -26.9928
rfingers 7.12502
rthumb -11.6915 -416.647
lclavicle -1.25234e-014 -7.31528e-014
lhumerus 30.7836 -33.8556 95.5307
lradius 68.4117
lwrist 30.8141
lhand -11.9781 46.2695
lfingers 7.12502
lthumb 14.0781 75.7726
rfemur -36.9621 0.813137 14.2497
rtibia 20.0841
rfoot -1.77044 -12.0193
rtoes 0.0660938
lfemur -2.49041 -0.837321 -26.1719
ltibia 30.1712
lfoot -15.2706 -0.453922
ltoes -16.5927
565
root -32.3199 17.582 3.34747 203.035 -84.8016 -194.869
lowerback -0.662447 -6.74123 0.995778
upperback -3.5674 -9.12093 8.04021
thorax -2.16157 -4.6342 7.88108
lowerneck -11.4668 -6.75235 -7.64787
upperneck 3.78901 -8.25201 4.91034
head 3.48964 -3.99912 2.16572
rclavicle -4.01545e-014 7.31528e-014
rhumerus 28.1694 15.4822 -65.0873
rradius 86.156
rwrist 28.5197
rhand -39.2509 -27.3799
rfingers 7.12502
rthumb -12.2455 -417.001
lclavicle -4.01545e-014 7.31528e-014
lhumerus 30.6697 -33.7322 95.9744
lradius 68.3893
lwrist 31.871
lhand -11.9792 46.7669
lfingers 7.12502
lthumb 14.077 76.2701
rfemur -36.9696 1.22705 14.3397
rtibia 20.2881
rfoot -1.46687 -11.6473
rtoes 0.674891
lfemur -2.72642 -0.604449 -26.067
ltibia 31.1982
lfoot -14.6577 -0.758225
ltoes -17.2325
566
root -32.4941 17.5813 3.34385 201.755 -84.6057 -193.538
lowerback -0.624167 -6.77198 1.24208
upperback -3.5369 -9.16943 8.20916
thorax -2.15555 -4.66858 7.92802
lowerneck -11.5547 -6.66766 -7.53503
upperneck 3.75477 -8.14071 4.80154
head 3.47697 -3.94637 2.12205
rclavicle -4.87022e-014 5.40694e-014
rhumerus 28.171 15.6738 -65.0235
rradius 85.9726
rwrist 29.0196
rhand -39.8288 -27.7956
rfingers 7.12502
rthumb -12.8028 -417.383
lclavicle -4.87022e-014 5.40694e-014
lhumerus 30.5095 -33.656 96.398
lradius 68.385
lwrist 32.8815
lhand -11.9607 47.2288
lfingers 7.12502
lthumb 14.0949 76.7308
rfemur -36.9582 1.64019 14.4509
rtibia 20.5646
rfoot -1.17933 -11.2588
rtoes 1.35656
lfemur -3.00111 -0.361473 -25.9459
ltibia 32.2662
lfoot -13.9927 -1.04645
ltoes -17.8105
567
root -32.6689 17.582 3.33958 200.447 -84.4005 -192.188
lowerback -0.579916 -6.80032 1.49274
upperback -3.49717 -9.2153 8.37912
thorax -2.14414 -4.70204 7.97404
lowerneck -11.6451 -6.58283 -7.42285
upperneck 3.7199 -8.02963 4.69759
head 3.46502 -3.89357 2.07983
rclavicle -4.21423e-014 3.81667e-014
rhumerus 28.0768 15.8803 -64.9773
rradius 85.8345
rwrist 29.4959
rhand -40.3995 -28.2331
rfingers 7.12502
rthumb -13.3529 -417.785
lclavicle -4.21423e-014 3.81667e-014
lhumerus 30.3071 -33.6272 96.7967
lradius 68.3974
lwrist 33.8496
lhand -11.922 47.6497
lfingers 7.12502
lthumb 14.1322 77.1491
rfemur -36.9286 2.051 14.5841
rtibia 20.9079
rfoot -0.90976 -10.8535
rtoes 2.09329
lfemur -3.31605 -0.108767 -25.8089
ltibia 33.3699
lfoot -13.2793 -1.31388
ltoes -18.3113
568
root -32.8442 17.5841 3.33467 199.131 -84.1861 -190.837
lowerback -0.529785 -6.82565 1.74655
upperback -3.4501 -9.25767 8.54971
thorax -2.12923 -4.73408 8.01958
lowerneck -11.7343 -6.49897 -7.31189
upperneck 3.68557 -7.92025 4.59582
head 3.45352 -3.84161 2.03834
rclavicle 2.18663e-015 -6.67916e-014
rhumerus 27.8808 16.1004 -64.9489
rradius 85.7389
rwrist 29.9657
rhand -40.9703 -28.707
rfingers 7.12502
rthumb -13.903 -418.222
lclavicle 2.18663e-015 -6.67916e-014
lhumerus 30.0597 -33.649 97.1733
lradius 68.425
lwrist 34.7727
lhand -11.851 48.0192
lfingers 7.12502
lthumb 14.2005 77.5138
rfemur -36.879 2.45879 14.7367
rtibia 21.3076
rfoot -0.660462 -10.4345
rtoes 2.88137
lfemur -3.67151 0.15452 -25.6574
ltibia 34.5058
lfoot -12.5266 -1.55384
ltoes -18.7441
569
root -33.0199 17.5875 3.32913 197.817 -83.9615 -189.493
lowerback -0.474302 -6.84826 2.00304
upperback -3.3946 -9.29702 8.72015
thorax -2.10938 -4.76492 8.06388
lowerneck -11.8224 -6.41508 -7.2038
upperneck 3.64859 -7.81128 4.50129
head 3.44171 -3.78964 1.9995
rclavicle 4.96962e-014 -6.67916e-014
rhumerus 27.5836 16.3342 -64.9371
rradius 85.685
rwrist 30.4225
rhand -41.5388 -29.2265
rfingers 7.12502
rthumb -14.4508 -418.703
lclavicle 4.96962e-014 -6.67916e-014
lhumerus 29.7724 -33.7233 97.521
lradius 68.469
lwrist 35.6548
lhand -11.7511 48.3358
lfingers 7.12502
lthumb 14.2968 77.8236
rfemur -36.8088 2.86226 14.9084
rtibia 21.756
rfoot -0.434806 -10.0019
rtoes 3.72076
lfemur -4.06743 0.428529 -25.4924
ltibia 35.6675
lfoot -11.7427 -1.76202
ltoes -19.1159
